<svg width="175" height="38" viewBox="0 0 175 38" fill="none" xmlns="http://www.w3.org/2000/svg">
<g clip-path="url(#clip0_363_11579)">
<path d="M101.247 11.4C102.811 5.16201 98.9969 0 89.6543 0H69.405L61.8184 30.509L66.2222 38.0136H80.6272C90.0658 38.0136 97.3781 33.6416 99.2576 26.0416C100.204 22.1462 99.1067 19.4222 96.6373 18.0602V17.9649C98.979 16.4589 100.634 14.1023 101.247 11.4ZM88.8997 25.7964C88.5156 27.39 87.4318 29.0244 82.9457 29.0244H73.7539L75.359 22.4867H84.5096C88.9409 22.4731 89.2701 24.1484 88.8449 25.7964H88.8997ZM90.7381 11.6043C90.4088 12.8301 89.4622 14.3283 85.5934 14.3283H77.362L78.7339 9.01649H86.9653C90.8753 8.98925 91.0673 10.2423 90.7381 11.6043Z" fill="#007ACC"/>
<path d="M113.991 23.2903H132.43L134.529 14.3011H116.214L117.64 8.98925H135.777L137.876 0H108.106L98.667 38H132.388L134.597 29.0108H112.633L113.991 23.2903Z" fill="#007ACC"/>
<path d="M140.456 0L138.343 8.98925H149.359L142.129 38H153.694L160.938 8.98925H172.736L175 0H140.456Z" fill="#007ACC"/>
<path d="M12.1002 38H0.439009L5.48761 17.7061L6.65373 14.6416L3.56695 17.7061L0.13719 21.152L0 11.0186L12.1002 0H21.5252L12.1002 38Z" fill="#002F5E"/>
<path d="M54.2042 22.2552L50.4863 16.0036L68.5269 0H51.7211L44.8615 6.53763L21.5941 27.7168L10.4268 38H26.3271L38.2764 27.4172L42.2961 34.2272C43.668 35.9434 45.6024 38.0272 53.8063 38.0272H63.4097L54.2179 22.2416L54.2042 22.2552Z" fill="#002F5E"/>
<path d="M43.572 4.43994V4.35822C42.5427 2.93256 41.1692 1.78639 39.5776 1.02487C37.9859 0.263349 36.2272 -0.0891226 34.4626 -0.0002041H22.0469L31.3072 15.6356L43.572 4.43994Z" fill="#002F5E"/>
</g>
<defs>
<clipPath id="clip0_363_11579">
<rect width="175" height="38" fill="white"/>
</clipPath>
</defs>
</svg>
