<svg width="97" height="94" viewBox="0 0 97 94" fill="none" xmlns="http://www.w3.org/2000/svg">
<path fill-rule="evenodd" clip-rule="evenodd" d="M55.2254 20.461C53.156 19.9619 51.5394 19.7124 50.3754 19.7124C41.9687 19.7124 35.114 26.2624 35.114 34.3719C35.114 42.4815 41.9687 49.0315 50.3754 49.0315C58.782 49.0315 65.6367 42.4815 65.6367 34.3719C65.6367 33.1867 65.5074 32.0015 65.184 30.8786L77.2767 27.7595C79.2814 35.0581 77.9234 42.7934 73.6554 49.0939L53.6087 84.963H35.0494L48.2414 61.5077C48.306 61.3829 48.112 61.071 47.918 61.071C33.8207 59.8234 22.7627 48.4077 22.7627 34.5591C22.7627 19.8371 35.1787 7.92236 50.44 7.92236C53.2207 7.92236 56.0014 8.29665 58.7174 9.1076L55.2254 20.461Z" fill="#006F54"/>
<path d="M50.3098 42.419C54.9169 42.419 58.6518 38.8162 58.6518 34.3719C58.6518 29.9275 54.9169 26.3247 50.3098 26.3247C45.7026 26.3247 41.9678 29.9275 41.9678 34.3719C41.9678 38.8162 45.7026 42.419 50.3098 42.419Z" fill="#D3DD25"/>
<path d="M64.732 29.8184C64.344 29.8184 64.0206 29.6312 63.8266 29.257C62.4686 25.9508 59.882 23.3308 56.5193 21.896C56.0666 21.7088 55.808 21.1474 56.0666 20.7107C56.2606 20.2741 56.8426 20.0246 57.2953 20.2741C61.1106 21.9584 64.0206 24.8903 65.5726 28.6331C65.7666 29.1322 65.508 29.6312 65.0553 29.8184H64.732ZM70.0346 27.635C69.6466 27.635 69.3233 27.4479 69.1293 27.0736C67.1893 22.4574 63.5033 18.7146 58.7826 16.5936C58.33 16.4065 58.0713 15.845 58.33 15.346C58.524 14.9093 59.106 14.6598 59.6233 14.9093C64.7966 17.2174 68.806 21.2722 70.94 26.3874C71.134 26.8865 70.8753 27.3855 70.4226 27.5727C70.2933 27.5727 70.164 27.635 70.0346 27.635ZM75.1433 25.9508C74.7553 25.9508 74.432 25.7012 74.238 25.3893C71.716 19.2136 66.866 14.2855 60.5286 11.6031C60.076 11.416 59.8173 10.8545 60.0113 10.4179C60.2053 9.9812 60.7873 9.73168 61.24 9.91882C64.6026 11.3536 67.5773 13.3498 70.0993 15.9074C72.6213 18.465 74.626 21.3969 75.9193 24.7031C76.1133 25.2022 75.8546 25.7012 75.402 25.8884C75.402 25.9508 75.2726 25.9508 75.1433 25.9508Z" fill="#D3DD25"/>
</svg>
