<svg width="168" height="48" viewBox="0 0 168 48" fill="none" xmlns="http://www.w3.org/2000/svg">
<path d="M9.52688 9.85207C10.2849 9.62761 11.0576 9.45591 11.8393 9.33819C12.7698 9.20156 13.7093 9.13713 14.6496 9.14549C16.4276 9.11603 18.1911 9.46928 19.8206 10.1813C21.2891 10.8277 22.5989 11.7868 23.6586 12.9916C24.7204 14.2459 25.5239 15.6976 26.0233 17.2632C26.57 18.9484 26.8412 20.7108 26.8262 22.4823C26.8739 24.6756 26.4948 26.8571 25.7101 28.9058C25.0333 30.6271 23.9605 32.1649 22.5787 33.3943C21.1935 34.5978 19.5715 35.4977 17.8172 36.0359C15.8664 36.6331 13.8353 36.9269 11.7952 36.9071C9.61918 36.929 7.44687 36.7191 5.31546 36.2808C3.508 35.8954 1.73138 35.3775 0 34.7312V0H9.52688V9.85207ZM9.52688 29.5602C10.3419 29.7895 11.1856 29.9003 12.0321 29.8894C13.5462 29.9389 15.0035 29.3104 16.0066 28.1752C17.0237 27.0297 17.5309 25.2779 17.5282 22.9199C17.5282 20.6315 17.029 18.944 16.0307 17.8574C15.0709 16.7842 13.6882 16.1867 12.2488 16.2234C11.773 16.2195 11.298 16.2653 10.8317 16.3599C10.39 16.4514 9.95433 16.5694 9.52688 16.7132V29.5602Z" fill="black"/>
<path d="M37.2365 24.8231C37.3087 26.4289 37.8266 27.6722 38.7902 28.5527C39.7932 29.4607 41.1116 29.9405 42.4636 29.8896C43.526 29.9175 44.5799 29.6933 45.5389 29.2352C46.4612 28.7406 47.2684 28.0565 47.9075 27.2279L53.7329 31.8006C53.1395 32.5414 52.4664 33.2146 51.7255 33.808C50.0142 35.1732 47.9951 36.0994 45.844 36.5058C44.4532 36.7689 43.04 36.8953 41.6245 36.8832C39.8187 36.8974 38.0237 36.6027 36.3171 36.012C33.003 34.8926 30.3468 32.3758 29.0505 29.1268C28.2884 27.2125 27.9184 25.1647 27.9625 23.1048C27.9268 21.0881 28.2785 19.0832 28.9983 17.1991C29.6235 15.56 30.5802 14.0676 31.8086 12.8151C33.0302 11.5937 34.5067 10.6573 36.1324 10.073C37.8498 9.44318 39.6669 9.12899 41.4961 9.14565C45.4519 9.14565 48.5993 10.425 50.9386 12.9837C53.278 15.5424 54.4662 19.4887 54.5037 24.8231H37.2365ZM45.567 19.7605C45.5307 18.533 45.0792 17.354 44.2863 16.4163C43.6135 15.6294 42.6277 15.1798 41.5924 15.1878C40.503 15.1912 39.4655 15.6532 38.734 16.4604C37.8863 17.3691 37.3762 18.5411 37.2887 19.7806L45.567 19.7605Z" fill="black"/>
<path d="M54.2754 16.3877V9.74741H58.0332V3.04688H67.56V9.74741H71.5988L73.9514 16.3877H67.56V27.0548C67.5318 27.7747 67.6324 28.494 67.8571 29.1786C68.0579 29.6884 68.5035 29.9414 69.194 29.9414C69.8411 29.9404 70.4795 29.7921 71.0609 29.5078C71.6279 29.2365 72.166 28.9082 72.6667 28.5282L75.1157 34.2973C73.9247 35.1291 72.6125 35.7723 71.2255 36.2043C69.6426 36.6639 67.9996 36.8831 66.3516 36.8547C65.0088 36.8904 63.6709 36.6781 62.4052 36.2284C61.4108 35.8618 60.5226 35.255 59.8197 34.4619C59.1453 33.6575 58.6695 32.7059 58.4306 31.6837C58.1503 30.4892 58.0154 29.2652 58.0291 28.0384V16.3958L54.2754 16.3877Z" fill="black"/>
<path d="M82.4977 36.313L70.7266 3.03516H79.9363L86.7613 23.8474L90.8442 9.74774H97.0349L101.118 23.8474L105.036 9.74774H114.78L105.361 36.313H98.0667L93.8753 22.374L89.7402 36.313H82.4977Z" fill="black"/>
<path d="M129.723 36.3128L128.96 34.2413C128.102 35.0125 127.104 35.6133 126.021 36.0117C124.647 36.5262 123.188 36.7755 121.721 36.7464C120.555 36.7573 119.395 36.5742 118.289 36.2044C117.273 35.8627 116.339 35.3162 115.543 34.5986C114.762 33.8937 114.14 33.0317 113.716 32.0693C113.265 31.0019 113.043 29.8515 113.066 28.6929C112.987 26.3913 114.006 24.1893 115.812 22.7592C116.708 22.0462 117.711 21.4773 118.783 21.073C119.939 20.627 121.144 20.3158 122.372 20.1457C123.536 19.965 124.612 19.8285 125.612 19.7442C126.611 19.6599 127.527 19.5876 128.362 19.5515V18.8931C128.362 17.8011 128.016 17.0062 127.326 16.4842C126.615 15.969 125.755 15.7011 124.877 15.7215C123.857 15.7157 122.848 15.9193 121.91 16.3196C120.951 16.75 120.052 17.3033 119.236 17.9657L114.969 13.2484C116.414 11.9834 118.061 10.971 119.843 10.2534C121.904 9.48285 124.094 9.11354 126.294 9.16545C129.774 9.16545 132.549 10.0099 134.621 11.6987C136.692 13.3876 137.727 16.0093 137.724 19.5635V36.3128H129.723ZM128.362 24.2687C127.816 24.3049 127.274 24.349 126.728 24.4052C126.182 24.4615 125.62 24.5417 125.042 24.6501C123.917 24.8308 123.115 25.2202 122.633 25.8184C122.17 26.3844 121.92 27.0946 121.926 27.8258C121.906 28.5393 122.2 29.2259 122.729 29.7046C123.341 30.2257 124.131 30.4891 124.933 30.4393C125.573 30.4477 126.209 30.3374 126.808 30.1142C127.365 29.8991 127.888 29.6057 128.362 29.243V24.2687Z" fill="black"/>
<path d="M140.161 39.2516C140.733 39.5667 141.336 39.8224 141.96 40.0144C142.574 40.2188 143.215 40.3284 143.863 40.3396C144.443 40.3598 145.018 40.221 145.525 39.9381C146.008 39.6031 146.378 39.1282 146.584 38.5771L148.11 35.1486L136.841 9.74756H147.183L152.558 25.2604L157.894 9.74756H167.69L154.409 41.2108C153.467 43.4215 152.188 44.9819 150.571 45.8919C148.825 46.831 146.864 47.3 144.882 47.2529C143.599 47.2642 142.32 47.1186 141.072 46.8193C139.935 46.5349 138.824 46.1521 137.752 45.6751L140.161 39.2516Z" fill="black"/>
</svg>
