<svg width="186" height="37" viewBox="0 0 186 37" fill="none" xmlns="http://www.w3.org/2000/svg">
<mask id="mask0_364_11614" style="mask-type:luminance" maskUnits="userSpaceOnUse" x="0" y="0" width="186" height="37">
<path d="M185.305 0.900879H0V36.1232H185.305V0.900879Z" fill="white"/>
</mask>
<g mask="url(#mask0_364_11614)">
<path d="M147.605 32.4092H123.244C119.855 32.4092 119.046 31.4207 119.046 28.7377V14.9086C119.046 14.4427 119.405 14.0708 119.846 14.0379H133.994C134.44 14.0708 134.978 14.3438 135.259 14.6921L147.964 31.7455C148.212 32.1079 148.06 32.4092 147.605 32.4092ZM21.0043 32.3103H15.4176C14.944 32.3103 14.5577 31.9149 14.5577 31.4301V5.57943C14.5577 5.09461 14.944 4.69922 15.413 4.69922H21.0043C34.8263 4.69922 42.1558 10.5123 42.1558 18.4954C42.1558 26.5113 34.7573 32.3103 21.0043 32.3103ZM184.79 10.3711H180.739C180.026 10.3711 179.364 11.0583 179.36 11.0725L163.97 31.6984C163.68 32.0844 163.225 32.075 162.949 31.6796L148.736 11.0725C148.727 11.0536 148.198 10.3476 147.205 10.3476H119.906C119.428 10.3476 119.046 9.95221 119.046 9.46739L119.064 2.66111C119.064 1.68206 118.292 0.895996 117.345 0.895996H75.5337C69.0595 1.12193 66.2868 1.7809 63.3256 3.55543C60.5943 5.19346 59.2333 7.27394 59.2333 9.77334C59.2333 12.4234 61.3438 15.0357 65.5741 17.6152C66.6593 18.2835 70.5723 20.2134 77.3039 23.3953C81.5296 25.3958 83.8103 27.0385 83.6494 28.6671C83.3919 31.2795 81.0744 32.1785 75.5383 32.1785H50.2577C49.6461 32.1785 49.1449 32.0703 49.1449 31.5808C49.1449 31.3407 49.2829 31.1242 49.5496 30.95L49.545 30.9453C55.2053 27.4621 57.0721 22.7599 57.0721 18.4954C57.0721 10.517 50.5152 0.900693 24.4161 0.900693H1.7197C0.772487 0.900693 0 1.68676 0 2.66581V34.3673C0 35.3369 0.767889 36.123 1.7197 36.123H24.4115C25.276 36.123 26.1174 36.1136 26.9359 36.09H83.6954C88.8775 36.09 92.9284 35.2145 95.8528 33.4635C98.552 31.8349 99.9038 29.778 99.9038 27.2645C99.9038 24.6238 97.7933 22.0162 93.563 19.4415C92.4824 18.7731 88.5694 16.8338 81.8331 13.6331C77.6074 11.6373 75.4969 10.0181 75.4969 8.78487C75.4969 6.13485 78.2328 4.85456 83.7 4.85456H102.888C103.362 4.85456 103.748 5.24523 103.752 5.73005L103.739 28.733C103.739 32.1032 105.918 36.09 112.526 36.09H165.257C166.508 36.09 167.138 35.2616 167.138 35.2616L185.209 10.9548C185.209 10.9548 185.609 10.3711 184.79 10.3711Z" fill="#0095DA"/>
</g>
</svg>
