<svg width="186" height="35" viewBox="0 0 186 35" fill="none" xmlns="http://www.w3.org/2000/svg">
<path d="M35.2947 0.792004C39.121 0.794475 42.9482 0.84258 46.7732 0.770364C48.2653 0.742193 48.607 1.40562 48.6298 2.74226C48.6537 4.14494 48.0414 4.49369 46.7681 4.49972C41.5472 4.5244 36.3221 4.28536 31.1064 4.71853C27.8098 4.99232 24.6132 5.66297 21.6566 7.1918C17.5607 9.30973 14.7987 12.4316 14.6888 17.2708C14.577 22.1949 17.1894 25.5447 21.3713 27.6905C26.6735 30.4112 32.3711 30.992 38.2115 30.157C40.5669 29.8202 41.3702 28.7152 41.3951 26.3002C41.412 24.6606 41.345 23.0189 41.4039 21.3813C41.4495 20.1151 40.9007 19.6301 39.6754 19.6528C37.7934 19.6877 35.9056 19.5691 34.029 19.6729C32.5121 19.7567 31.85 19.3759 31.8674 17.6841C31.8842 16.0515 32.5911 15.809 33.9705 15.8196C40.0437 15.8662 46.118 15.7878 52.1905 15.8631C53.6601 15.8813 54.2852 15.542 54.5718 13.9746C55.6602 8.02288 59.5764 4.16798 64.9994 2.37106C74.3278 -0.719904 83.9184 -0.880772 93.2426 2.43213C104.268 6.34963 107.76 19.7239 100.181 28.1237C97.5275 31.0651 94.113 32.7984 90.3045 33.5913C81.369 35.4517 72.4755 35.6807 63.824 32.1515C61.1986 31.0805 58.9848 29.4051 57.2497 27.1313C56.9948 26.7973 56.71 26.3861 56.255 26.4152C55.8019 26.4441 55.7569 26.9093 55.7674 27.2616C55.8826 31.1295 53.1499 32.4403 50.1506 33.4154C48.9518 33.8051 47.6565 34.0516 46.3986 34.081C37.6601 34.2849 28.9073 34.7312 20.2075 33.4831C15.5589 32.8162 11.0384 31.664 6.99331 29.1186C-2.60123 23.0813 -2.26193 11.038 7.63304 5.5115C12.7878 2.6325 18.4323 1.64877 24.1894 1.11062C27.8795 0.765677 31.5886 0.753243 35.2947 0.792004ZM68.8653 16.223C68.8613 20.7439 69.5182 23.2644 71.1274 26.083C74.7606 32.4469 82.0985 32.9294 86.5237 27.1031C87.3348 26.0353 87.6534 24.7548 88.1965 23.5727C90.6437 18.2466 89.3025 10.3904 85.0754 6.39992C81.4646 2.99123 76.5557 2.99216 73.0205 6.48809C69.9981 9.47688 68.9189 13.2546 68.8653 16.223Z" fill="#DD0514"/>
<path d="M115.927 34.2591C114.835 34.2577 113.735 34.2629 112.653 34.1363C108.548 33.6558 106.097 30.9284 106.086 26.7988C106.066 19.0266 106.081 11.2543 106.094 3.48202C106.097 1.24314 106.53 0.800365 108.736 0.787093C112.015 0.76737 115.294 0.761852 118.573 0.78312C120.562 0.796021 121.045 1.2939 121.064 3.24927C121.079 4.76716 121.15 6.29071 121.048 7.80181C120.944 9.34878 121.584 9.78214 123.064 9.7719C130.897 9.7177 138.731 9.81275 146.563 9.70236C148.673 9.67261 149.989 10.311 151.193 12.0964C154.989 17.7288 158.983 23.2283 162.913 28.7706C164.204 30.5908 164.31 30.5845 165.689 28.7841C170.115 23.0064 174.531 17.2216 178.96 11.446C180.044 10.0316 183.453 9.13147 185.029 9.85372C185.984 10.2918 185.185 10.7697 184.939 11.0995C182.582 14.2608 171.71 28.4064 168.763 32.4143C167.754 33.7856 166.61 34.3193 164.929 34.3076C156.428 34.2484 123.76 34.2686 115.927 34.2591ZM136.11 30.6798C139.994 30.6798 143.878 30.6832 147.762 30.6748C148.169 30.6739 148.684 30.8006 148.904 30.338C149.121 29.8808 148.691 29.5532 148.451 29.2382C144.699 24.3196 140.925 19.4183 137.179 14.4949C136.58 13.7073 135.884 13.2976 134.876 13.3053C130.871 13.3361 126.864 13.366 122.859 13.3168C121.378 13.2987 121.016 13.9628 121.04 15.3192C121.11 19.081 121.058 22.8449 121.078 26.6078C121.094 29.8497 121.87 30.647 125.185 30.6882C128.826 30.7336 136.11 30.6861 136.11 30.6798Z" fill="#05893B"/>
</svg>
