<svg width="88" height="88" viewBox="0 0 88 88" fill="none" xmlns="http://www.w3.org/2000/svg">
<g clip-path="url(#clip0_363_11598)">
<path d="M88 0H0V88H88V0Z" fill="#EC1C24"/>
<path d="M22.1166 40.8252C21.5939 40.8252 17.8715 40.8252 17.8715 40.8252L16.5938 51.2286H19.2848L20.2581 43.3015H21.6045C22.5513 43.3015 22.8664 44.1129 22.7925 44.7183C22.6974 45.4892 21.7347 46.3551 20.7438 45.9151L21.4179 48.5041C23.551 48.2418 25.0294 46.5223 25.2881 44.6778C25.6296 42.2473 23.5317 40.8252 22.1166 40.8252Z" fill="white"/>
<path d="M31.0114 40.7812C28.8818 40.7812 26.9423 42.5078 26.6818 44.6374C26.4196 46.767 27.935 48.4936 30.0646 48.4936C32.1942 48.4936 34.1337 46.767 34.3942 44.6374C34.6564 42.5078 33.141 40.7812 31.0114 40.7812ZM30.3638 46.0489C29.5841 46.0489 29.0314 45.4171 29.1265 44.6392C29.2215 43.8595 29.9308 43.2294 30.7105 43.2294C31.4902 43.2294 32.0428 43.8612 31.9478 44.6392C31.8527 45.4171 31.1434 46.0489 30.3638 46.0489Z" fill="white"/>
<path d="M39.1554 40.8253C37.0064 40.783 35.7903 43.1784 35.7322 43.6606L35.1338 48.5323H37.7351C37.7351 48.5323 38.1205 45.396 38.2138 44.6392C38.3071 43.8824 39.1202 43.3157 39.7116 43.3157C40.3029 43.3157 41.1565 43.3157 41.1565 43.3157L40.4613 40.8253H39.1554Z" fill="white"/>
<path d="M46.1392 40.8231L46.4261 38.4858L43.589 39.4063L43.4148 40.8249H41.748L42.3253 43.3153H42.9994L42.3517 48.5865H45.0762L45.7256 43.3012H48.5188L47.901 40.8231H46.1392Z" fill="white"/>
<path d="M52.5472 44.3344L51.7376 40.8391H49.1504L50.6693 48.5303L49.3616 51.2284H51.9629L56.9278 40.8232H54.1893L52.5472 44.3344Z" fill="white"/>
<path d="M16.6407 39.6859C17.3806 38.99 17.481 37.8949 16.865 37.24C16.249 36.5851 15.1499 36.6183 14.41 37.3142C13.6701 38.0101 13.5697 39.1051 14.1857 39.7601C14.8016 40.415 15.9008 40.3818 16.6407 39.6859Z" fill="white"/>
<path d="M9.33714 49.3742C10.0771 48.6783 10.1776 47.5831 9.56166 46.9281C8.94567 46.2731 7.84644 46.3063 7.10646 47.0022C6.36648 47.6981 6.26596 48.7932 6.88194 49.4482C7.49793 50.1032 8.59716 50.0701 9.33714 49.3742Z" fill="white"/>
<path d="M12.7677 41.7965C12.5653 41.8071 11.731 41.8335 11.5058 41.837C11.0147 41.844 10.6504 41.4128 10.7067 40.9464C10.7789 40.3586 11.3016 40.0031 11.7398 40.0084C12.1147 40.0119 12.8926 40.0101 12.8926 40.0101L12.3646 37.1061C9.5064 36.7629 7.77808 39.4047 7.64432 40.9183C7.44368 43.194 9.23888 44.8061 10.8933 44.7779C11.7627 44.7639 12.1446 44.7568 12.1446 44.7568C12.5917 44.7639 12.9912 45.1317 12.9261 45.665C12.8451 46.3285 12.2485 46.6277 11.9387 46.6277C11.629 46.6277 10.851 46.6277 10.851 46.6277L11.3808 49.456C12.8856 49.6514 15.9058 48.6359 16.1082 45.4925C16.3141 42.2788 13.2165 41.7736 12.7677 41.7965Z" fill="white"/>
<path d="M81.0605 40.8252H79.6103L79.8989 38.4756L76.9087 39.5316L76.7467 40.8252H75.124L75.7101 43.3015H76.444L75.7946 48.5868H78.6581L79.3023 43.3385H81.5216L81.0605 40.8252Z" fill="white"/>
<path d="M63.9109 42.8193C64.5551 42.5306 65.6199 41.8566 65.8557 40.0332C66.0529 38.5003 64.6079 37.3439 63.258 37.4126C62.3005 37.4619 58.3599 37.4126 58.3599 37.4126L56.9941 48.5323H59.7714L60.317 44.083H61.6423C62.1826 44.083 62.4818 44.523 62.4097 44.9999C62.3252 45.5508 61.8799 45.7919 61.4681 45.8447C61.3783 45.8571 60.7922 45.8465 60.7922 45.8465L61.1319 48.3123C63.478 49.1747 65.3401 47.2475 65.5407 45.6247C65.7167 44.1833 64.8649 43.1502 63.9109 42.8193ZM61.762 41.3937C61.4505 41.3937 60.6356 41.3937 60.6356 41.3937L60.8521 39.6319C60.8521 39.6319 61.6018 39.6319 61.9397 39.6319C62.4871 39.6319 62.8109 40.0262 62.7476 40.5489C62.6737 41.142 62.0735 41.3937 61.762 41.3937Z" fill="white"/>
<path d="M71.3472 40.6226C69.1173 40.6226 66.9947 42.1731 66.6815 44.7322C66.5019 46.193 67.3819 48.5848 70.2595 48.5848C72.3381 48.5848 73.2322 47.9424 73.7778 47.4162L71.8682 45.7758C71.7027 45.9888 71.1888 46.2898 70.5095 46.2898C70.0501 46.2898 69.4394 46.0046 69.1824 45.32H74.4923C75.2069 42.9141 73.6176 40.6226 71.3472 40.6226ZM69.589 43.7906C69.7544 43.3558 70.2349 42.9158 70.9688 42.9158C71.7714 42.9158 71.9527 43.5318 71.9826 43.7906H69.589Z" fill="white"/>
</g>
<defs>
<clipPath id="clip0_363_11598">
<rect width="88" height="88" fill="white"/>
</clipPath>
</defs>
</svg>
